<svg width="515" height="529" viewBox="0 0 515 529" fill="none" xmlns="http://www.w3.org/2000/svg">
<path d="M42.8066 319.558V343.045H65.7832V319.558V296.032H42.8066V319.558Z" fill="#263238"/>
<path d="M65.7832 178.594H42.8066V202.082H65.7832V178.594Z" fill="#263238"/>
<path d="M207.8 437.224H184.823V460.712H207.8V437.224Z" fill="#263238"/>
<path d="M65.7832 225.569V249.057H42.8066V272.545H65.7832V296.033H88.7598H111.774V319.558H134.75V296.033H157.727V272.545V249.057H134.75V272.545H111.774H88.7598V249.057V225.569V202.082H65.7832V225.569Z" fill="#263238"/>
<path d="M111.774 178.594H88.7598V202.082H111.774H134.75V178.594H111.774Z" fill="#263238"/>
<path d="M215.185 367.443H227.508V343.956H215.185H202.824V367.443H215.185Z" fill="#263238"/>
<path d="M157.725 202.082H134.748V225.569H157.725V202.082Z" fill="#263238"/>
<path d="M318.598 296.032H295.621V319.52H318.598V296.032Z" fill="#263238"/>
<path d="M341.576 37.6279H318.6V61.1157H341.576V37.6279Z" fill="#263238"/>
<path d="M203.68 225.568V202.08H226.657V178.592H203.68V155.104H180.703V178.592H157.727V202.08H180.703V225.568V249.056V272.543V296.031H203.68V272.543V249.056H226.657V225.568H203.68Z" fill="#263238"/>
<path d="M318.598 460.484H341.574V436.996H318.598H295.621V460.484H318.598Z" fill="#263238"/>
<path d="M295.623 37.6279H272.646V61.1157H295.623V37.6279Z" fill="#263238"/>
<path d="M289.867 225.57V202.082H266.891V178.594H243.914V202.082V225.57H220.938V249.058H243.914H266.891V225.57H289.867Z" fill="#263238"/>
<path d="M419.563 178.594H396.586V202.082H419.563V178.594Z" fill="#263238"/>
<path d="M181.37 296.032H158.394V319.52H181.37V296.032Z" fill="#263238"/>
<path d="M272.645 155.104V131.617H295.621V108.091H318.598H341.575V84.603H318.598V61.1152H295.621V84.603H272.645V108.091H249.631V131.617H226.654V155.104H249.631H272.645Z" fill="#263238"/>
<path d="M272.645 319.558V296.032H295.621V272.544H272.645H249.631V296.032H226.654V319.558H249.631H272.645Z" fill="#263238"/>
<path d="M341.577 413.51V389.984H318.6H295.623V366.497H272.647V389.984H249.633V413.51H226.656H203.68V436.998H226.656H249.633H272.647V413.51H295.623V436.998H318.6V413.51H341.577Z" fill="#263238"/>
<path d="M249.631 61.1157V37.6279H226.654H203.678V61.1157H180.701V84.6035H203.678H226.654V61.1157H249.631Z" fill="#263238"/>
<path d="M249.631 84.605H226.654V108.093H249.631V84.605Z" fill="#263238"/>
<path d="M307.093 178.593H284.116V202.081V225.568V249.056H307.093H330.07V225.568H307.093V202.081H330.07V178.593H353.046V155.105H330.07V131.617H307.093V155.105V178.593Z" fill="#263238"/>
<path d="M226.656 108.092H203.68V131.58H226.656V108.092Z" fill="#263238"/>
<path d="M295.621 343.046V366.534H318.598H341.574V343.046H364.551H387.528V319.558H364.551H341.574H318.598V343.046H295.621Z" fill="#263238"/>
<path d="M419.563 249.057H396.586V272.544H419.563V249.057Z" fill="#263238"/>
<path d="M341.576 272.544H318.6V296.032H341.576V272.544Z" fill="#263238"/>
<path d="M399.037 202.082H376.061H353.047V225.569H376.061V249.057H399.037V225.569V202.082Z" fill="#263238"/>
<path d="M387.529 272.544H364.553V296.032H387.529V272.544Z" fill="#263238"/>
<path d="M134.749 413.964H203.716V319.52H111.327V343.045H88.7959V366.533H111.327V390.021H88.7959V413.509H111.327V413.964H111.773V436.996H88.7959V483.972H111.773V460.408H134.749V413.964ZM186.01 337.581V396.32H128.55V337.581H186.01Z" fill="#263238"/>
<path d="M433.485 319.558H456.461V296.032H433.485H410.508H387.531V319.558H410.508H433.485Z" fill="#263238"/>
<path d="M433.483 225.57H456.46V202.082V178.594H433.483V202.082V225.57Z" fill="#263238"/>
<path d="M250.524 343.956H227.51V367.443V390.931H250.524V367.443V343.956Z" fill="#263238"/>
<path d="M479.435 319.558H456.458V343.046H479.435V319.558Z" fill="#263238"/>
<path d="M479.472 272.544V249.057H456.458V272.544V296.032H479.472V272.544Z" fill="#263238"/>
<path d="M65.7832 436.996H42.8066V460.484V483.972H65.7832V460.484V436.996Z" fill="#263238"/>
<path d="M479.473 155.105V37.4761H364.404V155.105H479.473ZM381.776 137.46V55.2342H462.213V137.46H381.776Z" fill="#263238"/>
<path d="M444.989 72.8789H399.036V119.854H444.989V72.8789Z" fill="#263238"/>
<path d="M479.473 366.533H364.404V483.972H479.473V366.533ZM381.776 466.366V384.14H462.213V466.366H381.776Z" fill="#263238"/>
<path d="M444.989 401.745H399.036V448.721H444.989V401.745Z" fill="#263238"/>
<path d="M42.5459 37.6279V155.257H157.355V37.6279H42.5459ZM140.206 55.2343V137.46H59.769V55.2343H140.206Z" fill="#263238"/>
<path d="M122.946 72.8789H76.9932V119.854H122.946V72.8789Z" fill="#263238"/>
<path d="M9.76823 119.513V36.0346C9.24577 28.3751 11.5503 20.7935 16.227 14.7855C19.027 11.6255 22.4751 9.13665 26.3251 7.49681C30.1751 5.85696 34.3318 5.10657 38.4984 5.29931H124.317C124.997 5.29931 125.648 5.0235 126.128 4.53249C126.609 4.04149 126.879 3.3755 126.879 2.68111C126.879 1.98673 126.609 1.32079 126.128 0.829789C125.648 0.338784 124.997 0.0629166 124.317 0.0629165H39.5377C32.358 -0.305578 25.2347 1.53143 19.0851 5.33729C14.6651 8.34605 11.0342 12.4167 8.51039 17.1929C5.9866 21.9691 4.64699 27.305 4.60875 32.7333C4.38604 46.4693 4.60875 60.2432 4.60875 73.9413V119.475C4.68456 120.12 4.98897 120.714 5.46434 121.145C5.93971 121.576 6.55311 121.814 7.18855 121.814C7.82398 121.814 8.43738 121.576 8.91275 121.145C9.38812 120.714 9.69241 120.12 9.76823 119.475V119.513Z" fill="#439A97"/>
<path d="M116.895 523.663H35.2331C27.7424 524.179 20.3323 521.825 14.4464 517.061C11.3593 514.195 8.92735 510.67 7.32352 506.735C5.71969 502.8 4.98333 498.552 5.1667 494.294V406.452C5.1667 405.757 4.8969 405.091 4.41658 404.6C3.93626 404.109 3.28476 403.833 2.60549 403.833C1.92621 403.833 1.27471 404.109 0.794395 404.6C0.314075 405.091 0.0442669 405.757 0.0442669 406.452V493.231C-0.311649 500.57 1.48505 507.851 5.20386 514.139C8.14667 518.655 12.1296 522.363 16.8026 524.936C21.4757 527.51 26.6957 528.871 32.0038 528.899C45.4408 529.127 58.8778 528.899 72.3149 528.899H116.858C117.537 528.899 118.188 528.623 118.669 528.132C119.149 527.641 119.419 526.975 119.419 526.281C119.419 525.587 119.149 524.921 118.669 524.43C118.188 523.939 117.537 523.663 116.858 523.663H116.895Z" fill="#439A97"/>
<path d="M509.762 405.617V489.095C510.284 496.755 507.98 504.336 503.303 510.344C500.505 513.506 497.057 515.997 493.207 517.637C489.356 519.277 485.199 520.026 481.032 519.83H395.101C394.422 519.83 393.771 520.106 393.29 520.597C392.81 521.088 392.54 521.754 392.54 522.449C392.54 523.143 392.81 523.809 393.29 524.3C393.771 524.791 394.422 525.067 395.101 525.067H479.992C487.172 525.435 494.295 523.598 500.445 519.792C504.863 516.784 508.49 512.713 511.008 507.936C513.525 503.159 514.857 497.823 514.884 492.396C515.144 478.66 514.884 464.924 514.884 451.188V405.655C514.884 404.96 514.614 404.294 514.134 403.803C513.654 403.312 513.002 403.037 512.323 403.037C511.644 403.037 510.992 403.312 510.512 403.803C510.032 404.294 509.762 404.96 509.762 405.655V405.617Z" fill="#439A97"/>
<path d="M396.587 5.33758H478.248C485.746 4.81417 493.163 7.18357 499.035 11.9779C502.137 14.8318 504.578 18.3552 506.183 22.2928C507.788 26.2305 508.516 30.4839 508.315 34.7447V122.701C508.315 123.395 508.585 124.061 509.065 124.552C509.545 125.043 510.197 125.319 510.876 125.319C511.555 125.319 512.207 125.043 512.687 124.552C513.167 124.061 513.437 123.395 513.437 122.701V35.8072C513.798 28.4557 512.002 21.1616 508.278 14.8617C505.335 10.3457 501.352 6.63784 496.679 4.06409C492.006 1.49033 486.786 0.129508 481.478 0.101186C468.041 -0.126482 454.604 0.101186 441.166 0.101186H396.624C395.944 0.101186 395.293 0.376996 394.813 0.868001C394.332 1.35901 394.062 2.02499 394.062 2.71938C394.062 3.41377 394.332 4.0797 394.813 4.5707C395.293 5.06171 395.944 5.33758 396.624 5.33758H396.587Z" fill="#439A97"/>
</svg>
